# xmcd
#
# Track frame offsets:
#        150
#        11549
#        25200
#        45676
#        82952
#        121069
#        158405
#        188546
#        217582
#        235733
#        256823
#        280059
#
# Disc length: 4206 seconds
#
# Revision: 2
# Processed by: cddbd v1.5.1PL2 Copyright (c) Steve Scherf et al.
# Submitted via: ExactAudioCopy v0.95b2
#
DISCID=80106c0c
DTITLE=Various Artist - Jazz Bar 2002
DYEAR=2002
DGENRE=Jazz
TTITLE0=C'est si bon (JAKI BYARD TRIO)
TTITLE1=Look, Stop, And Listen (CHRIS NEVILLE)
TTITLE2=Spanish Harlem (JANET SELDEL)
TTITLE3=Tnner Swing (GILLES HEKIMIAN TRIO)
TTITLE4=We Will Meet Again (MONCEF GENOUD TRIO)
TTITLE5=Alone Together (DON LANPHERE AND NEW STORIES)
TTITLE6=Sleep Safe And Warm (SIMPLE ACOUSTIC TRIO)
TTITLE7=Feeling Good (LYNNE ARRIALE TRIO)
TTITLE8=Passacaglia (TOM GOHEN TRIO)
TTITLE9=Close To The Equator (ROE KELLER CLEAVER)
TTITLE10=East Of The Sun (GREG COHEN)
TTITLE11=Jessica's Theme (LYNNE ARRIALE TRIO)
EXTD=
EXTT0=
EXTT1=
EXTT2=
EXTT3=
EXTT4=
EXTT5=
EXTT6=
EXTT7=
EXTT8=
EXTT9=
EXTT10=
EXTT11=
PLAYORDER=
